<?xml version="1.0" standalone="no"?>
<!DOCTYPE svg PUBLIC "-//W3C//DTD SVG 20010904//EN" "http://www.w3.org/TR/2001/REC-SVG-20010904/DTD/svg10.dtd">
<!-- Created using Krita: https://krita.org -->
<svg xmlns="http://www.w3.org/2000/svg" 
    xmlns:xlink="http://www.w3.org/1999/xlink"
    xmlns:krita="http://krita.org/namespaces/svg/krita"
    xmlns:sodipodi="http://sodipodi.sourceforge.net/DTD/sodipodi-0.dtd"
    width="1190.4pt"
    height="841.92pt"
    viewBox="0 0 1190.4 841.92">
<defs/>
<path id="shape0" transform="translate(229.440003812476, 81.6000013559015)" fill="#d46a1f" fill-rule="evenodd" stroke="#000000" stroke-width="38.4192" stroke-linecap="square" stroke-linejoin="bevel" d="M174.72 41.28L446.4 0L644.16 146.88L719.04 328.32L639.36 566.4L503.04 643.2L274.56 687.36L212.16 650.88L27.84 445.44L0 358.08L92.16 129.6Z" sodipodi:nodetypes="cccccccccccc"/><path id="shape1" transform="translate(261.120004338885, 127.680002121587)" fill="none" stroke="#000000" stroke-width="22.86" stroke-linecap="square" stroke-linejoin="bevel" d="M143.04 0L109.44 172.8L0 387.84" sodipodi:nodetypes="ccc"/><path id="shape2" transform="translate(372.480006189291, 228.480003796524)" fill="none" stroke="#000000" stroke-width="22.86" stroke-linecap="square" stroke-linejoin="bevel" d="M0 72L277.44 180.48L501.12 0" sodipodi:nodetypes="ccc"/><path id="shape3" transform="translate(693.120011517186, 643.200010687694)" fill="none" stroke="#000000" stroke-width="22.86" stroke-linecap="square" stroke-linejoin="bevel" d="M0 16.32L182.4 0" sodipodi:nodetypes="cc"/><path id="shape4" transform="translate(443.520007369723, 660.480010974826)" fill="none" stroke="#000000" stroke-width="22.86" stroke-linecap="square" stroke-linejoin="bevel" d="M247.68 0L0 72" sodipodi:nodetypes="cc"/><path id="shape5" transform="translate(649.920010799356, 408.960006795459)" fill="none" stroke="#000000" stroke-width="22.86" stroke-linecap="square" stroke-linejoin="bevel" d="M0 0L41.28 246.72" sodipodi:nodetypes="cc"/><path id="shape6" transform="translate(524.160008709673, 204.48000339773)" fill="none" stroke="#000000" stroke-width="28.848" stroke-linecap="square" stroke-linejoin="bevel" d="M0 0L100.8 114.24" sodipodi:nodetypes="cc"/><path id="shape7" transform="matrix(0.999893097297547 -0.0146216954118781 0.0146216954118781 0.999893097297547 668.731033689735 229.037332040445)" fill="none" stroke="#000000" stroke-width="28.848" stroke-linecap="square" stroke-linejoin="bevel" d="M75.84 0L0 53.76" sodipodi:nodetypes="cc"/><path id="shape8" transform="matrix(0.988984355351992 0.148020082654367 -0.148020082654367 0.988984355351992 518.13370262202 215.29143596027)" fill="none" stroke="#000000" stroke-width="28.848" stroke-linecap="square" stroke-linejoin="bevel" d="M5.91017 0C6.70224 8.24214 2.05144 24.6 0 24.6" sodipodi:nodetypes="cc"/><path id="shape9" transform="matrix(0.94899134615513 0.315302116901666 -0.315302116901666 0.94899134615513 597.927792679745 134.790098356447)" fill="none" stroke="#000000" stroke-width="28.848" stroke-linecap="square" stroke-linejoin="bevel" d="M107.687 111.962C102.085 111.962 102.318 106.634 98.8467 104.479C70.8531 87.1026 95.49 47.3072 80.3632 23.8326C68.4198 5.29821 0 -17.3143 0 20.5069C0 30.1781 1.32057 36.6903 6.42906 44.6179C7.95086 46.9795 13.6617 47.9143 13.6617 49.6063" sodipodi:nodetypes="cccccc"/>
</svg>
