<?xml version="1.0" encoding="UTF-8"?>
<svg id="Layer_1" xmlns="http://www.w3.org/2000/svg" version="1.1" viewBox="0 0 1200 1200">
  <!-- Generator: Adobe Illustrator 29.0.1, SVG Export Plug-In . SVG Version: 2.1.0 Build 192)  -->
  <defs>
    <style>
      .st0 {
        fill: #c83c28;
        fill-rule: evenodd;
      }
    </style>
  </defs>
  <path class="st0" d="M1031.4,264.3h-223.7v-40.4c0-79.5-64.5-144-144-144h-167.4c-79.5,0-144,64.5-144,144v40.4h-223.7c-26.5,0-48,21.5-48,48s21.5,48,48,48h96v617.6c0,38.2,15.2,74.8,42.2,101.8t0,0c27,27,63.6,42.1,101.8,42.1h422.7c38.2,0,74.8-15.2,101.8-42.2s42.2-63.6,42.2-101.8V360.3h96c26.5,0,48-21.5,48-48s-21.5-48-48-48ZM448.3,223.9c0-26.5,21.5-48,48-48h167.4c26.5,0,48,21.5,48,48v40.4h-263.4v-40.4ZM839.4,977.9c0,12.7-5,25-14,34s-21.2,14-34,14h-422.7c-12.7,0-24.9-5.1-34-14.1-9-9-14-21.2-14-33.9V360.3h518.7v617.6Z"/>
  <path class="st0" d="M480,888c26.5,0,48-21.5,48-48v-291.1c0-26.5-21.5-48-48-48s-48,21.5-48,48v291.1c0,26.5,21.5,48,48,48Z"/>
  <path class="st0" d="M672,888c26.5,0,48-21.5,48-48v-291.1c0-26.5-21.5-48-48-48s-48,21.5-48,48v291.1c0,26.5,21.5,48,48,48Z"/>
</svg>