<?xml version="1.0" encoding="UTF-8"?>
<svg width="1200pt" height="1200pt" version="1.1" viewBox="0 0 1200 1200" xmlns="http://www.w3.org/2000/svg">
 <path d="m224.64 312.27v665.59c0 38.184 15.168 74.832 42.168 101.83 0 0.023438 0 0.023438 0.023437 0.023438 27.023 27 63.625 42.145 101.81 42.145h422.73c38.184 0 74.832-15.168 101.83-42.168s42.168-63.648 42.168-101.83v-665.59c0-26.496-21.504-48-48-48s-48 21.504-48 48v665.59c0 12.746-5.0391 24.961-14.039 33.961s-21.215 14.039-33.961 14.039h-422.73c-12.746 0-24.938-5.0625-33.961-14.062-9-9-14.039-21.219-14.039-33.938v-665.59c0-26.496-21.504-48-48-48s-48 21.504-48 48z" fill-rule="evenodd"/>
 <path d="m128.64 360.27h902.73c26.496 0 48-21.504 48-48s-21.504-48-48-48h-902.73c-26.496 0-48 21.504-48 48s21.504 48 48 48z" fill-rule="evenodd"/>
 <path d="m807.7 223.87c0-79.512-64.488-144-144-144h-167.38c-79.512 0-144 64.488-144 144v88.395c0 26.52 21.48 48 48 48h359.38c26.52 0 48-21.48 48-48zm-96 0v40.395h-263.38v-40.395c0-26.52 21.48-48 48-48h167.38c26.496 0 48 21.48 48 48z" fill-rule="evenodd"/>
 <path d="m432 548.93v291.07c0 26.496 21.504 48 48 48s48-21.504 48-48v-291.07c0-26.496-21.504-48-48-48s-48 21.504-48 48z" fill-rule="evenodd"/>
 <path d="m624 548.93v291.07c0 26.496 21.504 48 48 48s48-21.504 48-48v-291.07c0-26.496-21.504-48-48-48s-48 21.504-48 48z" fill-rule="evenodd"/>
</svg>
